<?xml version="1.0" encoding="UTF-8"?>
<svg version="1.1" xmlns="http://www.w3.org/2000/svg" width="588" height="543">
<path d="M0 0 C0.78179626 -0.00067474 1.56359253 -0.00134949 2.36907959 -0.00204468 C66.08935877 0.08437158 130.32294797 19.55387933 182 57.25 C182.56525391 57.66217773 183.13050781 58.07435547 183.71289062 58.49902344 C203.36454302 72.9638518 222.19068431 89.80371658 237 109.25 C237.79277344 110.24902344 238.58554687 111.24804688 239.40234375 112.27734375 C281.31338702 165.28344228 301.49550044 233.45857104 293.8125 300.75 C288.57912124 342.57871374 273.83066351 383.97603267 249 418.25 C248.54157715 418.88953613 248.0831543 419.52907227 247.61083984 420.18798828 C232.67729762 440.92312321 215.38536028 460.71829693 195 476.25 C193.7397896 477.24861869 192.48076919 478.24874011 191.22265625 479.25 C137.7404773 521.45783027 69.87855988 543.44668608 2 543.5 C1.21820374 543.50067474 0.43640747 543.50134949 -0.36907959 543.50204468 C-64.08935877 543.41562842 -128.32294797 523.94612067 -180 486.25 C-180.84788086 485.6317334 -180.84788086 485.6317334 -181.71289062 485.00097656 C-194.84215108 475.337031 -206.87659972 464.54347885 -218.4375 453.0625 C-219.26580322 452.24346191 -220.09410645 451.42442383 -220.94750977 450.58056641 C-226.39555323 445.10453359 -231.30604867 439.38148537 -236 433.25 C-236.59079346 432.48228271 -237.18158691 431.71456543 -237.7902832 430.92358398 C-245.54973586 420.74305123 -252.81152853 410.45877628 -259 399.25 C-259.45584473 398.43644043 -259.91168945 397.62288086 -260.38134766 396.78466797 C-294.22651659 335.95257686 -301.42523664 266.60650117 -283.01831055 199.75610352 C-275.4001395 173.38105199 -263.11443386 147.49288447 -247 125.25 C-246.54157715 124.61046387 -246.0831543 123.97092773 -245.61083984 123.31201172 C-230.67729762 102.57687679 -213.38536028 82.78170307 -193 67.25 C-191.7397896 66.25138131 -190.48076919 65.25125989 -189.22265625 64.25 C-135.7404773 22.04216973 -67.87855988 0.05331392 0 0 Z " fill="#231F1F" transform="translate(293,-0.25)"/>
<path d="M0 0 C1.07507813 0.2784375 2.15015625 0.556875 3.2578125 0.84375 C29.62278335 8.21323583 52.78999822 25.32848791 68 48 C68.55155762 48.80969238 68.55155762 48.80969238 69.11425781 49.63574219 C81.55232324 68.12820326 87.60920356 89.84097528 87.5 112.0625 C87.49856995 112.73265137 87.49713989 113.40280273 87.4956665 114.09326172 C87.40024521 132.28045273 84.02028974 155.45137837 72 170 C65.19465947 171.64214097 58.08324077 171.19831109 51.125 171.1875 C50.05356247 171.18659363 50.05356247 171.18659363 48.96047974 171.18566895 C35.88512573 171.15577034 22.99994767 170.45095017 10 169 C8.86933105 168.88172852 7.73866211 168.76345703 6.57373047 168.64160156 C-23.80912067 165.41052038 -53.90229701 159.36636726 -83 150 C-83.96969727 149.69626465 -84.93939453 149.3925293 -85.93847656 149.07958984 C-125.81536102 136.57516245 -125.81536102 136.57516245 -143 126 C-149.5387964 112.9224072 -142.62059105 87.53747778 -138.28515625 74.3828125 C-133.93340149 62.92804161 -128.73087913 52.57156464 -121 43 C-120.31292969 42.10023438 -119.62585938 41.20046875 -118.91796875 40.2734375 C-109.65607996 28.42489509 -98.9836723 19.44475047 -86 12 C-85.3920459 11.64808594 -84.7840918 11.29617187 -84.15771484 10.93359375 C-59.24509341 -3.20899941 -27.72068119 -7.86210029 0 0 Z " fill="#FDB700" transform="translate(342,149)"/>
<path d="M0 0 C1.54359695 0.00212242 1.54359695 0.00212242 3.11837769 0.00428772 C6.36801199 0.0098337 9.61757443 0.02237579 12.8671875 0.03515625 C15.0859365 0.04017824 17.30468659 0.04473992 19.5234375 0.04882812 C24.92971154 0.05978536 30.33594438 0.07646867 35.7421875 0.09765625 C35.0821875 1.41765625 34.4221875 2.73765625 33.7421875 4.09765625 C33.0821875 4.09765625 32.4221875 4.09765625 31.7421875 4.09765625 C31.401875 4.93296875 31.401875 4.93296875 31.0546875 5.78515625 C29.31939757 8.84257183 27.41558462 10.80465891 24.7421875 13.09765625 C21.61450195 13.953125 21.61450195 13.953125 18.10546875 14.28515625 C16.81423096 14.42356934 15.52299316 14.56198242 14.19262695 14.70458984 C13.51640289 14.76829773 12.84017883 14.83200562 12.14346313 14.89764404 C8.62822659 15.23424804 5.12305601 15.65224795 1.6171875 16.07421875 C0.92929642 16.15644684 0.24140533 16.23867493 -0.46733093 16.32339478 C-13.2402647 17.90871148 -25.11711996 21.5463685 -36.2578125 28.09765625 C-36.95390625 28.49726563 -37.65 28.896875 -38.3671875 29.30859375 C-43.47603144 32.56166105 -47.07561887 37.26493931 -48.87109375 43.0859375 C-50.53974086 51.76627346 -48.53252213 59.10683297 -43.71484375 66.44921875 C-41.98208041 68.75692645 -40.16825128 70.93511833 -38.2578125 73.09765625 C-37.68417969 73.75378906 -37.11054688 74.40992188 -36.51953125 75.0859375 C10.08028287 124.87888663 107.29241903 143.86808576 172.7421875 146.09765625 C207.90955655 147.21379086 207.90955655 147.21379086 242.7421875 143.09765625 C243.45133301 142.9584375 244.16047852 142.81921875 244.89111328 142.67578125 C258.37649685 139.89037092 273.55287063 134.86604428 282.7421875 124.09765625 C286.20123808 118.47669906 287.26414376 113.67430511 286.7421875 107.09765625 C284.73567216 99.1078572 281.20289232 93.18463909 275.7421875 87.09765625 C274.85853516 86.05738281 274.85853516 86.05738281 273.95703125 84.99609375 C265.49554502 75.74397163 254.09123816 68.39677493 243.05859375 62.546875 C242.32970947 62.16015625 241.6008252 61.7734375 240.84985352 61.375 C239.48934016 60.67149813 238.1164745 59.99116757 236.73022461 59.33984375 C233.24591428 57.56458513 231.35214394 55.97669392 229.9296875 52.3984375 C228.59575628 48.0369147 227.62233575 43.57088032 226.7421875 39.09765625 C247.7489792 47.48461221 268.91882163 56.40009897 287.7421875 69.09765625 C288.39735352 69.5354541 289.05251953 69.97325195 289.72753906 70.42431641 C299.47558749 76.97399424 308.33143821 83.89619466 316.7421875 92.09765625 C317.75345703 93.01611328 317.75345703 93.01611328 318.78515625 93.953125 C326.73969656 101.34575518 333.83572643 112.15582121 335.0859375 123.109375 C335.3657978 132.40306903 333.70028682 138.0864839 327.6796875 145.16015625 C305.81210247 168.07906749 268.17472355 173.05552062 237.90283203 174.20552063 C235.06511712 174.26035183 232.22883775 174.28787142 229.390625 174.30078125 C228.34573914 174.30784088 227.30085327 174.31490051 226.2243042 174.32217407 C188.93820704 174.51641922 153.44335248 171.51897955 116.7421875 165.09765625 C115.59524414 164.89946289 114.44830078 164.70126953 113.26660156 164.49707031 C48.59311783 153.10560269 -22.64301914 131.58694746 -73.75 89.17578125 C-75.43572531 87.77888738 -77.14213175 86.40661636 -78.8671875 85.05859375 C-88.62043227 77.05838317 -97.71453273 64.62210947 -100.2578125 52.09765625 C-101.13576512 42.17003816 -98.83374553 35.09705546 -92.53125 27.3984375 C-70.07762296 4.67474965 -30.37779449 -0.1605691 0 0 Z " fill="#9AD8EE" transform="translate(196.2578125,174.90234375)"/>
<path d="M0 0 C3.81799554 0.67376392 7.33824544 1.73246958 11 3 C13.13987643 3.71860313 15.28177423 4.43098063 17.42382812 5.14306641 C19.23074823 5.74411735 21.03665373 6.34822303 22.84179688 6.95458984 C38.84651275 12.28526645 54.9416939 16.58677992 71.375 20.375 C72.28938843 20.5858725 73.20377686 20.796745 74.14587402 21.01400757 C80.08960252 22.37814307 86.04039739 23.70699519 92 25 C92.68267944 25.14836304 93.36535889 25.29672607 94.06872559 25.44958496 C104.15482181 27.61774308 114.28040289 29.14628195 124.5 30.5 C125.6829213 30.6590834 125.6829213 30.6590834 126.88973999 30.82138062 C142.88854743 32.96721652 158.91964663 34.60420238 175 36 C162.25348756 49.12140986 145.53534935 56.01021002 128 60 C126.88588745 60.27928345 126.88588745 60.27928345 125.74926758 60.56420898 C118.29269669 62.28861289 110.94021518 62.3458963 103.3125 62.3125 C102.64536987 62.31034485 101.97823975 62.3081897 101.29089355 62.30596924 C91.51219033 62.2552066 82.42317675 61.83882644 73 59 C71.98268799 58.71793701 71.98268799 58.71793701 70.94482422 58.43017578 C54.17950092 53.75018214 38.80214223 45.91073381 26 34 C25.23743896 33.30680664 25.23743896 33.30680664 24.45947266 32.59960938 C14.70224331 23.66499673 4.38699749 12.74435024 0 0 Z " fill="#FBB400" transform="translate(211,315)"/>
<path d="M0 0 C0.66 0 1.32 0 2 0 C2.25652344 0.75023437 2.51304687 1.50046875 2.77734375 2.2734375 C7.22414308 14.16151381 14.383074 22.63576289 26 28 C29.95656873 29.49834555 33.9394734 30.81393553 38 32 C38 32.66 38 33.32 38 34 C37.24976563 34.268125 36.49953125 34.53625 35.7265625 34.8125 C24.02644896 39.29214045 14.9999186 45.79203023 9 57 C7.03948446 61.56551674 5.48225723 66.25950912 4 71 C3.34 71 2.68 71 2 71 C1.61328125 70.13117188 1.2265625 69.26234375 0.828125 68.3671875 C-6.17291221 52.87479327 -13.09147736 45.37525163 -29 39 C-30.99372643 38.31479977 -32.9920086 37.64219545 -35 37 C-31.92580801 33.297506 -27.54482042 31.7253815 -23.26953125 29.78125 C-19.02863156 27.76523345 -16.14326886 25.46635747 -13 22 C-12.46375 21.44957031 -11.9275 20.89914062 -11.375 20.33203125 C-5.98518109 14.37566887 -2.90525637 7.42160947 0 0 Z " fill="#F9E6E2" transform="translate(150,348)"/>
<path d="M0 0 C0.66 0 1.32 0 2 0 C2.25652344 0.65226563 2.51304687 1.30453125 2.77734375 1.9765625 C5.47382236 8.13216014 8.06531148 11.40252448 13.9140625 14.74609375 C15.95068819 15.9703575 17.40230814 17.25475061 19 19 C18.32453125 19.37511719 17.6490625 19.75023437 16.953125 20.13671875 C9.08212776 24.65230531 5.29525833 28.59709127 2 37 C1.34 37 0.68 37 0 37 C-0.25652344 36.34773438 -0.51304687 35.69546875 -0.77734375 35.0234375 C-3.90182629 27.89078039 -7.35537952 24.81560496 -14 21 C-15.34679376 20.01820352 -16.68441297 19.02323436 -18 18 C-16.39805929 17.01719585 -14.79336258 16.03888283 -13.1875 15.0625 C-12.29417969 14.51722656 -11.40085937 13.97195312 -10.48046875 13.41015625 C-8 12 -8 12 -5 11 C-3.92745649 8.73774618 -3.92745649 8.73774618 -3 6 C-2.01517978 3.99248185 -1.01847486 1.99065541 0 0 Z " fill="#F5E2DE" transform="translate(439,156)"/>
<path d="M0 0 C0.66 0 1.32 0 2 0 C2.27972656 0.58007812 2.55945313 1.16015625 2.84765625 1.7578125 C6.94000999 9.73198088 11.73843629 14.37297203 20 18 C18.32949879 19.11366747 16.64472804 20.20890523 14.9140625 21.2265625 C8.29403368 25.27088045 4.46461148 29.60616556 2 37 C1.34 37 0.68 37 0 37 C-0.268125 36.34773438 -0.53625 35.69546875 -0.8125 35.0234375 C-4.46934075 26.8677203 -9.03721673 22.83064852 -17 19 C-17 18.34 -17 17.68 -17 17 C-16.34773437 16.74347656 -15.69546875 16.48695312 -15.0234375 16.22265625 C-8.07669982 13.17961629 -4.43381346 9.76625973 -1 3 C-0.67 2.01 -0.34 1.02 0 0 Z " fill="#F6E3DF" transform="translate(231,88)"/>
<path d="M0 0 C0.66 0 1.32 0 2 0 C2.33 1.65 2.66 3.3 3 5 C1.35 5.66 -0.3 6.32 -2 7 C-1.34 4.69 -0.68 2.38 0 0 Z " fill="#C2B0AE" transform="translate(150,348)"/>
<path d="M0 0 C2.4375 0.375 2.4375 0.375 5 1 C5.33 1.66 5.66 2.32 6 3 C5.34 3 4.68 3 4 3 C3.67 4.32 3.34 5.64 3 7 C2.01 4.69 1.02 2.38 0 0 Z " fill="#D99800" transform="translate(211,315)"/>
</svg>
