<svg version="1.1" id="Layer_1" xmlns="http://www.w3.org/2000/svg" xmlns:xlink="http://www.w3.org/1999/xlink" x="0px" y="0px"
	 width="100%" viewBox="0 0 1600 1600" enable-background="new 0 0 1600 1600" xml:space="preserve">
<path fill="#222021" opacity="1.000000" stroke="none" 
	d="
M769.000000,1601.000000 
	C512.666687,1601.000000 256.833435,1601.000000 1.000103,1601.000000 
	C1.000069,1067.666748 1.000069,534.333618 1.000034,1.000318 
	C534.333069,1.000212 1067.666138,1.000212 1600.999512,1.000106 
	C1600.999634,534.333008 1600.999634,1067.666016 1600.999756,1600.999512 
	C1323.833374,1601.000000 1046.666626,1601.000000 769.000000,1601.000000 
M455.928223,1310.396729 
	C569.779480,1227.672241 683.639893,1144.960449 797.430847,1062.153076 
	C800.328857,1060.044189 802.124756,1060.398682 804.794067,1062.348877 
	C834.515320,1084.064087 864.331604,1105.649048 894.107727,1127.289185 
	C979.118225,1189.071777 1064.120728,1250.865112 1149.129883,1312.649658 
	C1156.762573,1318.196899 1164.420166,1323.710083 1173.328247,1330.151855 
	C1172.240112,1326.347900 1171.646118,1323.997925 1170.898682,1321.697754 
	C1144.830811,1241.472412 1118.757935,1161.248779 1092.664795,1081.031738 
	C1072.849976,1020.115784 1053.042969,959.197266 1033.098877,898.323669 
	C1031.719849,894.114685 1032.025146,891.651978 1035.950195,888.817932 
	C1086.177734,852.551880 1136.249268,816.069763 1186.369629,779.655273 
	C1257.384521,728.060181 1328.407959,676.476929 1399.416870,624.873474 
	C1400.393677,624.163574 1401.226929,623.255920 1403.206421,621.463013 
	C1398.703491,621.463013 1395.577515,621.462952 1392.451416,621.463013 
	C1244.623413,621.465515 1096.795410,621.442932 948.967590,621.587524 
	C944.385071,621.592041 942.695312,619.970215 941.398865,615.904602 
	C932.401489,587.688538 923.174500,559.545776 914.028198,531.377258 
	C877.288269,418.226654 840.552856,305.074554 803.798340,191.928741 
	C803.070679,189.688629 802.129700,187.517838 800.923462,184.359619 
	C799.969421,187.038513 799.381409,188.572601 798.873535,190.132767 
	C782.652527,239.966934 766.422729,289.798248 750.228149,339.641052 
	C720.612549,430.790833 691.018982,521.947754 661.414307,613.101135 
	C658.695374,621.472839 658.688904,621.471558 649.951660,621.471375 
	C502.457123,621.468079 354.962585,621.462524 207.468033,621.478210 
	C204.988480,621.478455 202.508942,621.733948 198.833313,621.936096 
	C201.001633,623.612366 202.011124,624.435425 203.063217,625.199890 
	C225.565689,641.550659 248.076950,657.889282 270.578705,674.241089 
	C368.934235,745.715454 467.267639,817.220337 565.712585,888.571228 
	C569.681274,891.447693 570.366150,893.893494 568.888733,898.405884 
	C548.128235,961.814026 527.555664,1025.283691 506.915955,1088.731445 
	C481.644928,1166.415649 456.350983,1244.092285 431.085632,1321.778442 
	C430.347290,1324.048584 429.818939,1326.387207 428.819916,1330.066895 
	C438.447815,1323.084229 446.899689,1316.954468 455.928223,1310.396729 
z"/>
<path fill="#FDCB03" opacity="1.000000" stroke="none" 
	d="
M455.639893,1310.610718 
	C446.899689,1316.954468 438.447815,1323.084229 428.819916,1330.066895 
	C429.818939,1326.387207 430.347290,1324.048584 431.085632,1321.778442 
	C456.350983,1244.092285 481.644928,1166.415649 506.915955,1088.731445 
	C527.555664,1025.283691 548.128235,961.814026 568.888733,898.405884 
	C570.366150,893.893494 569.681274,891.447693 565.712585,888.571228 
	C467.267639,817.220337 368.934235,745.715454 270.578705,674.241089 
	C248.076950,657.889282 225.565689,641.550659 203.063217,625.199890 
	C202.011124,624.435425 201.001633,623.612366 198.833313,621.936096 
	C202.508942,621.733948 204.988480,621.478455 207.468033,621.478210 
	C354.962585,621.462524 502.457123,621.468079 649.951660,621.471375 
	C658.688904,621.471558 658.695374,621.472839 661.414307,613.101135 
	C691.018982,521.947754 720.612549,430.790833 750.228149,339.641052 
	C766.422729,289.798248 782.652527,239.966934 798.873535,190.132767 
	C799.381409,188.572601 799.969421,187.038513 800.923462,184.359619 
	C802.129700,187.517838 803.070679,189.688629 803.798340,191.928741 
	C840.552856,305.074554 877.288269,418.226654 914.028198,531.377258 
	C923.174500,559.545776 932.401489,587.688538 941.398865,615.904602 
	C942.695312,619.970215 944.385071,621.592041 948.967590,621.587524 
	C1096.795410,621.442932 1244.623413,621.465515 1392.451416,621.463013 
	C1395.577515,621.462952 1398.703491,621.463013 1403.206421,621.463013 
	C1401.226929,623.255920 1400.393677,624.163574 1399.416870,624.873474 
	C1328.407959,676.476929 1257.384521,728.060181 1186.369629,779.655273 
	C1136.249268,816.069763 1086.177734,852.551880 1035.950195,888.817932 
	C1032.025146,891.651978 1031.719849,894.114685 1033.098877,898.323669 
	C1053.042969,959.197266 1072.849976,1020.115784 1092.664795,1081.031738 
	C1118.757935,1161.248779 1144.830811,1241.472412 1170.898682,1321.697754 
	C1171.646118,1323.997925 1172.240112,1326.347900 1173.328247,1330.151855 
	C1164.420166,1323.710083 1156.762573,1318.196899 1149.129883,1312.649658 
	C1064.120728,1250.865112 979.118225,1189.071777 894.107727,1127.289185 
	C864.331604,1105.649048 834.515320,1084.064087 804.794067,1062.348877 
	C802.124756,1060.398682 800.328857,1060.044189 797.430847,1062.153076 
	C683.639893,1144.960449 569.779480,1227.672241 455.639893,1310.610718 
M964.989136,1043.613403 
	C965.246399,1043.572998 965.503723,1043.532593 965.760986,1043.492310 
	C965.565674,1043.270874 965.370422,1043.049316 965.195496,1042.051025 
	C961.774902,1031.267334 958.416077,1020.463623 954.923157,1009.703369 
	C938.285034,958.448059 921.676453,907.182922 904.831665,855.995483 
	C903.385315,851.600220 904.512512,849.561462 907.961609,847.067017 
	C959.232239,809.987549 1010.408997,772.778259 1061.601318,735.590637 
	C1063.364136,734.310181 1065.059082,732.936340 1066.785767,731.605957 
	C1063.624634,730.487061 1060.981934,730.486206 1058.339355,730.487183 
	C995.021362,730.510498 931.703308,730.516235 868.385376,730.610657 
	C865.239502,730.615356 863.765625,729.748535 862.808105,726.515869 
	C859.833008,716.471069 856.358765,706.574768 853.119995,696.607361 
	C836.516479,645.510193 819.928345,594.408020 803.321167,543.312073 
	C802.755310,541.571167 802.043518,539.877625 800.919373,536.881714 
	C799.518127,540.932312 798.610229,543.421997 797.792236,545.940979 
	C778.423462,605.586365 759.015259,665.219055 739.804138,724.915222 
	C738.392090,729.303101 736.494385,730.693665 731.834473,730.678528 
	C668.683777,730.473694 605.532410,730.505615 542.381165,730.479065 
	C540.124329,730.478149 537.867493,730.478943 535.610657,730.478943 
	C537.073669,732.974609 538.796997,734.437805 540.620850,735.762573 
	C591.814087,772.947266 642.995239,810.148865 694.270996,847.219482 
	C697.614929,849.637024 698.533386,851.678345 697.190430,855.771545 
	C681.428772,903.812561 665.843689,951.911682 650.284363,1000.018860 
	C645.681274,1014.250671 641.304993,1028.555786 636.383240,1043.026245 
	C636.447998,1043.297363 636.512756,1043.568359 636.577515,1043.839478 
	C636.767334,1043.608887 636.957214,1043.378418 637.852051,1043.154907 
	C638.708679,1042.648926 639.613831,1042.209839 640.415100,1041.627686 
	C683.760010,1010.133850 727.094299,978.625366 770.434937,947.125610 
	C780.625732,939.718994 790.835266,932.338074 800.937012,925.017273 
	C802.484497,926.090332 803.591553,926.826721 804.666260,927.607788 
	C853.389954,963.017517 902.099670,998.446472 950.850403,1033.819092 
	C955.386169,1037.110107 960.179016,1040.046753 964.989136,1043.613403 
z"/>
<path fill="#232020" opacity="1.000000" stroke="none" 
	d="
M636.824768,1042.827393 
	C641.304993,1028.555786 645.681274,1014.250671 650.284363,1000.018860 
	C665.843689,951.911682 681.428772,903.812561 697.190430,855.771545 
	C698.533386,851.678345 697.614929,849.637024 694.270996,847.219482 
	C642.995239,810.148865 591.814087,772.947266 540.620850,735.762573 
	C538.796997,734.437805 537.073669,732.974609 535.610657,730.478943 
	C537.867493,730.478943 540.124329,730.478149 542.381165,730.479065 
	C605.532410,730.505615 668.683777,730.473694 731.834473,730.678528 
	C736.494385,730.693665 738.392090,729.303101 739.804138,724.915222 
	C759.015259,665.219055 778.423462,605.586365 797.792236,545.940979 
	C798.610229,543.421997 799.518127,540.932312 800.919373,536.881714 
	C802.043518,539.877625 802.755310,541.571167 803.321167,543.312073 
	C819.928345,594.408020 836.516479,645.510193 853.119995,696.607361 
	C856.358765,706.574768 859.833008,716.471069 862.808105,726.515869 
	C863.765625,729.748535 865.239502,730.615356 868.385376,730.610657 
	C931.703308,730.516235 995.021362,730.510498 1058.339355,730.487183 
	C1060.981934,730.486206 1063.624634,730.487061 1066.785767,731.605957 
	C1065.059082,732.936340 1063.364136,734.310181 1061.601318,735.590637 
	C1010.408997,772.778259 959.232239,809.987549 907.961609,847.067017 
	C904.512512,849.561462 903.385315,851.600220 904.831665,855.995483 
	C921.676453,907.182922 938.285034,958.448059 954.923157,1009.703369 
	C958.416077,1020.463623 961.774902,1031.267334 965.104797,1042.519531 
	C965.014099,1042.988037 964.852539,1043.147827 964.852539,1043.147827 
	C960.179016,1040.046753 955.386169,1037.110107 950.850403,1033.819092 
	C902.099670,998.446472 853.389954,963.017517 804.666260,927.607788 
	C803.591553,926.826721 802.484497,926.090332 800.937012,925.017273 
	C790.835266,932.338074 780.625732,939.718994 770.434937,947.125610 
	C727.094299,978.625366 683.760010,1010.133850 640.415100,1041.627686 
	C639.613831,1042.209839 638.708679,1042.648926 637.418823,1043.071289 
	C636.985596,1042.987793 636.824768,1042.827393 636.824768,1042.827393 
z"/>
<path fill="#232020" opacity="1.000000" stroke="none" 
	d="
M637.066284,1043.067871 
	C636.957214,1043.378418 636.767334,1043.608887 636.577515,1043.839478 
	C636.512756,1043.568359 636.447998,1043.297363 636.604004,1042.926758 
	C636.824768,1042.827393 636.985596,1042.987793 637.066284,1043.067871 
z"/>
<path fill="#232020" opacity="1.000000" stroke="none" 
	d="
M965.094604,1042.907959 
	C965.370422,1043.049316 965.565674,1043.270874 965.760986,1043.492310 
	C965.503723,1043.532593 965.246399,1043.572998 964.920837,1043.380615 
	C964.852539,1043.147827 965.014099,1042.988037 965.094604,1042.907959 
z"/>
</svg>